<svg id="Layer_1" data-name="Layer 1" xmlns="http://www.w3.org/2000/svg" viewBox="0 0 782.04 701.87"><defs><style>.cls-1{fill:#f2f2f2;}.cls-2{fill:#fff;}.cls-3{fill:#e6e6e6;}.cls-4{fill:#1b3764;}.cls-5{fill:#ccc;}</style></defs><path class="cls-1" d="M400.51,1.53,375.06,8.09,61.56,88.94,36.11,95.5A48.19,48.19,0,0,0,1.53,154.12L111.87,582a48.19,48.19,0,0,0,58.62,34.58l.06,0,364.27-93.93.07,0A48.19,48.19,0,0,0,569.47,464L459.13,36.11A48.19,48.19,0,0,0,400.51,1.53Z" transform="translate(-0.01 -0.01)"/><path class="cls-2" d="M404,15l-30.14,7.77L69.71,101.14l-30.14,7.78A34.3,34.3,0,0,0,15,150.66L125.29,578.54A34.3,34.3,0,0,0,167,603.16h.07l364.26-93.94.07,0a34.3,34.3,0,0,0,24.62-41.74L445.71,39.57A34.3,34.3,0,0,0,404,15Z" transform="translate(-0.01 -0.01)"/><path class="cls-1" d="M381.21,153.5,196.94,201a8,8,0,1,1-4-15.52L377.21,138a8,8,0,0,1,4,15.52Z" transform="translate(-0.01 -0.01)"/><path class="cls-1" d="M420,171.44,203.69,227.21a8,8,0,0,1-4-15.51h0L416,155.92a8,8,0,1,1,4,15.52Z" transform="translate(-0.01 -0.01)"/><path class="cls-1" d="M411.48,270.88,227.21,318.4a8,8,0,1,1-4-15.52h0l184.27-47.52a8,8,0,1,1,4,15.51Z" transform="translate(-0.01 -0.01)"/><path class="cls-1" d="M450.25,288.81,234,344.59a8,8,0,1,1-4-15.52h0l216.28-55.78a8,8,0,0,1,4,15.52Z" transform="translate(-0.01 -0.01)"/><path class="cls-1" d="M441.75,388.25,257.48,435.77a8,8,0,0,1-4-15.52l184.28-47.52a8,8,0,1,1,4,15.52Z" transform="translate(-0.01 -0.01)"/><path class="cls-1" d="M480.51,406.19,264.23,462a8,8,0,0,1-4-15.51h0l216.28-55.77a8,8,0,1,1,4,15.52Z" transform="translate(-0.01 -0.01)"/><path class="cls-3" d="M165.48,249.75l-65.21,16.82a3.85,3.85,0,0,1-4.68-2.77l-15-58a3.84,3.84,0,0,1,2.76-4.68l65.21-16.82a3.84,3.84,0,0,1,4.68,2.76l15,58A3.85,3.85,0,0,1,165.48,249.75Z" transform="translate(-0.01 -0.01)"/><path class="cls-3" d="M195.75,367.12l-65.21,16.82a3.84,3.84,0,0,1-4.68-2.76l-15-58.05a3.84,3.84,0,0,1,2.76-4.68l65.21-16.82a3.84,3.84,0,0,1,4.68,2.76l15,58.05A3.84,3.84,0,0,1,195.75,367.12Z" transform="translate(-0.01 -0.01)"/><path class="cls-3" d="M226,484.5l-65.21,16.81a3.86,3.86,0,0,1-4.69-2.76l-15-58.05a3.84,3.84,0,0,1,2.76-4.68L209.13,419a3.84,3.84,0,0,1,4.68,2.76l15,58.05A3.85,3.85,0,0,1,226,484.5Z" transform="translate(-0.01 -0.01)"/><path class="cls-3" d="M654.66,110H278.34a48.17,48.17,0,0,0-48.12,48.13V600a48.17,48.17,0,0,0,48.12,48.13H654.66A48.17,48.17,0,0,0,702.78,600V158.12A48.17,48.17,0,0,0,654.66,110Z" transform="translate(-0.01 -0.01)"/><path class="cls-2" d="M654.66,123.85H278.34a34.3,34.3,0,0,0-34.27,34.27V600a34.3,34.3,0,0,0,34.27,34.27H654.66A34.3,34.3,0,0,0,688.93,600V158.12A34.3,34.3,0,0,0,654.66,123.85Z" transform="translate(-0.01 -0.01)"/><circle class="cls-4" cx="694.19" cy="614.02" r="87.85"/><path class="cls-2" d="M736.21,602.57H705.65V572a11.46,11.46,0,0,0-22.91,0v30.56H652.18a11.46,11.46,0,0,0,0,22.92h30.56V656a11.46,11.46,0,1,0,22.91,0V625.49h30.56a11.46,11.46,0,0,0,0-22.92Z" transform="translate(-0.01 -0.01)"/><path class="cls-3" d="M598,366.66H407.72a8,8,0,0,1,0-16H598a8,8,0,0,1,0,16Z" transform="translate(-0.01 -0.01)"/><path class="cls-3" d="M631.08,393.7H407.72a8,8,0,0,1,0-16H631.08a8,8,0,1,1,0,16Z" transform="translate(-0.01 -0.01)"/><path class="cls-3" d="M598,487.87H407.72a8,8,0,0,1,0-16H598a8,8,0,1,1,0,16Z" transform="translate(-0.01 -0.01)"/><path class="cls-3" d="M631.08,514.92H407.72a8,8,0,0,1,0-16H631.08a8,8,0,1,1,0,16Z" transform="translate(-0.01 -0.01)"/><path class="cls-3" d="M365.09,406H297.75a3.86,3.86,0,0,1-3.85-3.84V342.19a3.86,3.86,0,0,1,3.85-3.84h67.34a3.86,3.86,0,0,1,3.85,3.84v59.95A3.86,3.86,0,0,1,365.09,406Z" transform="translate(-0.01 -0.01)"/><path class="cls-3" d="M365.09,527.2H297.75a3.87,3.87,0,0,1-3.85-3.85V463.41a3.86,3.86,0,0,1,3.85-3.85h67.34a3.86,3.86,0,0,1,3.85,3.85v59.94A3.87,3.87,0,0,1,365.09,527.2Z" transform="translate(-0.01 -0.01)"/><path class="cls-5" d="M598.23,231.72H457.93a8,8,0,0,1,0-16h140.3a8,8,0,1,1,0,16Z" transform="translate(-0.01 -0.01)"/><path class="cls-5" d="M631.29,258.77H457.93a8,8,0,0,1,0-16H631.29a8,8,0,1,1,0,16Z" transform="translate(-0.01 -0.01)"/><path class="cls-4" d="M426.88,291.55H297.54a3.85,3.85,0,0,1-3.85-3.85V186.76a3.86,3.86,0,0,1,3.85-3.85H426.88a3.86,3.86,0,0,1,3.84,3.85V287.7A3.85,3.85,0,0,1,426.88,291.55Z" transform="translate(-0.01 -0.01)"/></svg>