<?xml version="1.0" encoding="utf-8"?>
<!-- Generator: Adobe Illustrator 25.0.0, SVG Export Plug-In . SVG Version: 6.00 Build 0)  -->
<svg version="1.1" id="Layer_1" xmlns="http://www.w3.org/2000/svg" xmlns:xlink="http://www.w3.org/1999/xlink" x="0px" y="0px"
	 viewBox="0 0 402.6 473.4" style="enable-background:new 0 0 402.6 473.4;" xml:space="preserve">
<style type="text/css">
	.st0{fill:#E6E6E6;}
	.st1{fill:#FFFFFF;}
	.st2{fill:#1B3764;}
	.st3{opacity:0.16;fill:#231F20;enable-background:new    ;}
	.st4{fill:#E4E4E4;}
</style>
<g>
	<path class="st0" d="M283.9,464.9H40.1c-13.6,0-24.6-11-24.6-24.6V117.5c0-13.6,11-24.6,24.6-24.6h243.8c13.6,0,24.6,11,24.6,24.6
		v322.8C308.5,453.9,297.5,464.9,283.9,464.9z"/>
	<path class="st1" d="M190.8,444.9H57.2c-12.4,0-22.4-10.1-22.4-22.4V135.3c0-12.4,10.1-22.4,22.4-22.4h209.5
		c12.4,0,22.4,10.1,22.4,22.4v211.3C289.1,400.9,245.1,444.9,190.8,444.9z"/>
	<circle class="st2" cx="316" cy="79.6" r="71.1"/>
	<path class="st3" d="M316,140.8c-37.3,0-68.3-28.9-70.9-66.1c-0.1,1.7-0.2,3.3-0.2,5c0,39.3,31.9,71.1,71.1,71.1
		c39.2,0,71.1-31.8,71.1-71.1c0-1.7-0.1-3.3-0.2-5C384.3,112,353.3,140.8,316,140.8z"/>
	<path class="st1" d="M316,114.3c-4.9,0-8.9-4-8.9-8.9V53.9c0-4.9,4-8.9,8.9-8.9c4.9,0,8.9,4,8.9,8.9c0,0,0,0,0,0v51.5
		C324.9,110.3,320.9,114.3,316,114.3z"/>
	<path class="st1" d="M281.4,79.7c0-4.9,4-8.9,8.9-8.9h51.5c4.9,0,8.9,4,8.9,8.9c0,4.9-4,8.9-8.9,8.9c0,0,0,0,0,0h-51.5
		C285.4,88.6,281.4,84.6,281.4,79.7z"/>
	<path class="st2" d="M226.1,205.4H64.3c-6.6,0-12-5.4-12-12v-33.8c0-6.6,5.4-12,12-12h161.8c6.6,0,12,5.4,12,12v33.8
		C238.1,200,232.7,205.4,226.1,205.4z"/>
	<path class="st4" d="M226.1,275.6H64.3c-6.6,0-12-5.4-12-12v-33.8c0-6.6,5.4-12,12-12h161.8c6.6,0,12,5.4,12,12v33.8
		C238.1,270.2,232.7,275.6,226.1,275.6z"/>
	<path class="st4" d="M226.1,310.3H64.3c-6.6,0-12-5.4-12-12v0c0-6.6,5.4-12,12-12h161.8c6.6,0,12,5.4,12,12v0
		C238.1,304.9,232.7,310.3,226.1,310.3z"/>
	<path class="st4" d="M226.1,343.2H64.3c-6.6,0-12-5.4-12-12v0c0-6.6,5.4-12,12-12h161.8c6.6,0,12,5.4,12,12v0
		C238.1,337.8,232.7,343.2,226.1,343.2z"/>
	<path class="st4" d="M226.1,427.6H64.3c-6.6,0-12-5.4-12-12V365c0-6.6,5.4-12,12-12h161.8c6.6,0,12,5.4,12,12v50.7
		C238.1,422.2,232.7,427.6,226.1,427.6z"/>
</g>
</svg>
