<?xml version="1.0" encoding="utf-8"?>
<svg version="1.1" xmlns:xlink="http://www.w3.org/1999/xlink" width="30px" height="30px" xmlns="http://www.w3.org/2000/svg">
  <g transform="matrix(1 0 0 1 -2107 -11 )">
    <path d="M 5.59090909090909 28.68181818181818  C 5.0151515151515165 29.257575757575758  4.3030303030303045 29.545454545454547  3.454545454545454 29.545454545454547  C 2.6060606060606077 29.545454545454547  1.8939393939393945 29.257575757575758  1.3181818181818183 28.68181818181818  C 0.7424242424242422 28.106060606060606  0.45454545454545414 27.393939393939394  0.45454545454545414 26.545454545454547  C 0.45454545454545414 25.696969696969692  0.7424242424242422 24.984848484848484  1.3181818181818183 24.409090909090907  C 1.8939393939393945 23.833333333333332  2.6060606060606077 23.545454545454543  3.454545454545454 23.545454545454543  C 4.3030303030303045 23.545454545454543  5.0151515151515165 23.833333333333332  5.59090909090909 24.409090909090907  C 6.166666666666666 24.984848484848484  6.454545454545453 25.696969696969692  6.454545454545453 26.545454545454547  C 6.454545454545453 27.393939393939394  6.166666666666666 28.106060606060606  5.59090909090909 28.68181818181818  Z M 17.136363636363637 28.68181818181818  C 16.560606060606062 29.257575757575758  15.848484848484851 29.545454545454547  15 29.545454545454547  C 14.151515151515152 29.545454545454547  13.43939393939394 29.257575757575758  12.863636363636363 28.68181818181818  C 12.28787878787879 28.106060606060606  12.000000000000004 27.393939393939394  11.999999999999998 26.545454545454547  C 12.000000000000004 25.696969696969692  12.28787878787879 24.984848484848484  12.863636363636363 24.409090909090907  C 13.43939393939394 23.833333333333332  14.151515151515152 23.545454545454543  15 23.545454545454543  C 15.848484848484851 23.545454545454543  16.560606060606062 23.833333333333332  17.136363636363637 24.409090909090907  C 17.712121212121215 24.984848484848484  18 25.696969696969692  18 26.545454545454547  C 18 27.393939393939394  17.712121212121215 28.106060606060606  17.136363636363637 28.68181818181818  Z M 28.68181818181818 28.68181818181818  C 28.106060606060606 29.257575757575758  27.393939393939398 29.545454545454547  26.545454545454543 29.545454545454547  C 25.6969696969697 29.545454545454547  24.984848484848484 29.257575757575758  24.409090909090907 28.68181818181818  C 23.833333333333332 28.106060606060606  23.545454545454543 27.393939393939394  23.545454545454543 26.545454545454547  C 23.545454545454543 25.696969696969692  23.833333333333332 24.984848484848484  24.409090909090907 24.409090909090907  C 24.984848484848484 23.833333333333332  25.6969696969697 23.545454545454543  26.545454545454543 23.545454545454543  C 27.393939393939398 23.545454545454543  28.106060606060606 23.833333333333332  28.68181818181818 24.409090909090907  C 29.25757575757576 24.984848484848484  29.545454545454547 25.696969696969692  29.545454545454547 26.545454545454547  C 29.545454545454547 27.393939393939394  29.25757575757576 28.106060606060606  28.68181818181818 28.68181818181818  Z M 5.59090909090909 17.136363636363637  C 5.0151515151515165 17.71212121212121  4.3030303030303045 17.999999999999993  3.454545454545454 18.000000000000004  C 2.6060606060606077 17.999999999999993  1.8939393939393945 17.71212121212121  1.3181818181818183 17.136363636363637  C 0.7424242424242422 16.560606060606062  0.45454545454545414 15.848484848484844  0.45454545454545414 15  C 0.45454545454545414 14.151515151515149  0.7424242424242422 13.439393939393938  1.3181818181818183 12.863636363636363  C 1.8939393939393945 12.287878787878785  2.6060606060606077 12  3.454545454545454 12  C 4.3030303030303045 12  5.0151515151515165 12.287878787878785  5.59090909090909 12.863636363636363  C 6.166666666666666 13.439393939393938  6.454545454545453 14.151515151515149  6.454545454545453 15  C 6.454545454545453 15.848484848484844  6.166666666666666 16.560606060606062  5.59090909090909 17.136363636363637  Z M 17.136363636363637 17.136363636363637  C 16.560606060606062 17.71212121212121  15.848484848484851 17.999999999999993  15 18.000000000000004  C 14.151515151515152 17.999999999999993  13.43939393939394 17.71212121212121  12.863636363636363 17.136363636363637  C 12.28787878787879 16.560606060606062  12.000000000000004 15.848484848484844  11.999999999999998 15  C 12.000000000000004 14.151515151515149  12.28787878787879 13.439393939393938  12.863636363636363 12.863636363636363  C 13.43939393939394 12.287878787878785  14.151515151515152 12  15 12  C 15.848484848484851 12  16.560606060606062 12.287878787878785  17.136363636363637 12.863636363636363  C 17.712121212121215 13.439393939393938  18 14.151515151515149  18 15  C 18 15.848484848484844  17.712121212121215 16.560606060606062  17.136363636363637 17.136363636363637  Z M 28.68181818181818 17.136363636363637  C 28.106060606060606 17.71212121212121  27.393939393939398 17.999999999999993  26.545454545454543 18.000000000000004  C 25.6969696969697 17.999999999999993  24.984848484848484 17.71212121212121  24.409090909090907 17.136363636363637  C 23.833333333333332 16.560606060606062  23.545454545454543 15.848484848484844  23.545454545454543 15  C 23.545454545454543 14.151515151515149  23.833333333333332 13.439393939393938  24.409090909090907 12.863636363636363  C 24.984848484848484 12.287878787878785  25.6969696969697 12  26.545454545454543 12  C 27.393939393939398 12  28.106060606060606 12.287878787878785  28.68181818181818 12.863636363636363  C 29.25757575757576 13.439393939393938  29.545454545454547 14.151515151515149  29.545454545454547 15  C 29.545454545454547 15.848484848484844  29.25757575757576 16.560606060606062  28.68181818181818 17.136363636363637  Z M 5.59090909090909 5.590909090909093  C 5.0151515151515165 6.166666666666666  4.3030303030303045 6.454545454545456  3.454545454545454 6.454545454545456  C 2.6060606060606077 6.454545454545456  1.8939393939393945 6.166666666666666  1.3181818181818183 5.590909090909093  C 0.7424242424242422 5.015151515151514  0.45454545454545414 4.303030303030303  0.45454545454545414 3.454545454545457  C 0.45454545454545414 2.6060606060606015  0.7424242424242422 1.8939393939393945  1.3181818181818183 1.3181818181818208  C 1.8939393939393945 0.7424242424242373  2.6060606060606077 0.4545454545454529  3.454545454545454 0.4545454545454529  C 4.3030303030303045 0.4545454545454529  5.0151515151515165 0.7424242424242373  5.59090909090909 1.3181818181818208  C 6.166666666666666 1.8939393939393945  6.454545454545453 2.6060606060606015  6.454545454545453 3.454545454545457  C 6.454545454545453 4.303030303030303  6.166666666666666 5.015151515151514  5.59090909090909 5.590909090909093  Z M 17.136363636363637 5.590909090909093  C 16.560606060606062 6.166666666666666  15.848484848484851 6.454545454545456  15 6.454545454545456  C 14.151515151515152 6.454545454545456  13.43939393939394 6.166666666666666  12.863636363636363 5.590909090909093  C 12.28787878787879 5.015151515151514  12.000000000000004 4.303030303030303  11.999999999999998 3.454545454545457  C 12.000000000000004 2.6060606060606015  12.28787878787879 1.8939393939393945  12.863636363636363 1.3181818181818208  C 13.43939393939394 0.7424242424242373  14.151515151515152 0.4545454545454529  15 0.4545454545454529  C 15.848484848484851 0.4545454545454529  16.560606060606062 0.7424242424242373  17.136363636363637 1.3181818181818208  C 17.712121212121215 1.8939393939393945  18 2.6060606060606015  18 3.454545454545457  C 18 4.303030303030303  17.712121212121215 5.015151515151514  17.136363636363637 5.590909090909093  Z M 28.68181818181818 5.590909090909093  C 28.106060606060606 6.166666666666666  27.393939393939398 6.454545454545456  26.545454545454543 6.454545454545456  C 25.6969696969697 6.454545454545456  24.984848484848484 6.166666666666666  24.409090909090907 5.590909090909093  C 23.833333333333332 5.015151515151514  23.545454545454543 4.303030303030303  23.545454545454543 3.454545454545457  C 23.545454545454543 2.6060606060606015  23.833333333333332 1.8939393939393945  24.409090909090907 1.3181818181818208  C 24.984848484848484 0.7424242424242373  25.6969696969697 0.4545454545454529  26.545454545454543 0.4545454545454529  C 27.393939393939398 0.4545454545454529  28.106060606060606 0.7424242424242373  28.68181818181818 1.3181818181818208  C 29.25757575757576 1.8939393939393945  29.545454545454547 2.6060606060606015  29.545454545454547 3.454545454545457  C 29.545454545454547 4.303030303030303  29.25757575757576 5.015151515151514  28.68181818181818 5.590909090909093  Z " fill-rule="nonzero" fill="#ffffff" stroke="none" transform="matrix(1 0 0 1 2107 11 )" />
  </g>
</svg>