<?xml version="1.0" encoding="utf-8"?>
<!-- Generator: Adobe Illustrator 25.0.0, SVG Export Plug-In . SVG Version: 6.00 Build 0)  -->
<svg version="1.1" id="Layer_1" xmlns="http://www.w3.org/2000/svg" xmlns:xlink="http://www.w3.org/1999/xlink" x="0px" y="0px"
	 viewBox="0 0 396.6 206.9" style="enable-background:new 0 0 396.6 206.9;" xml:space="preserve">
<style type="text/css">
	.st0{fill:#1B3764;}
	.st1{fill:#CCCCCC;}
	.st2{fill:#D7D7D7;}
	.st3{fill:#E6E6E6;}
	.st4{fill:#F1F1F1;}
	.st5{fill:#FFFFFF;}
</style>
<g>
	<rect id="ac5bf8cc-574d-4509-9338-881c836fd832" x="228.4" y="12.3" class="st0" width="14.1" height="9.7"/>
	<rect id="ad5a043d-52f1-4931-b771-e4991ef7f7f7" x="150.9" y="12.3" class="st0" width="14.1" height="9.7"/>
	<rect id="e5d95e83-bdd9-4322-95a9-5a9c4b449a8f" x="189.7" y="12.3" class="st1" width="14.1" height="9.7"/>
	<g>
		<path class="st2" d="M351.1,101.6h-95.2c-1.1,0-1.9-0.9-1.9-1.9V81.7h0.8v17.9c0,0.6,0.5,1.1,1.1,1.1h95.2c0.6,0,1.1-0.5,1.1-1.1
			V81.6h0.8v18.1C353,100.7,352.2,101.6,351.1,101.6z"/>
		<rect x="161.9" y="81.4" class="st2" width="223.7" height="0.8"/>
		<circle id="a67a4451-c7cc-402c-b29d-5a705f3c9418" class="st0" cx="162" cy="81.7" r="6.6"/>
		<circle id="abdb3fbf-f68e-433e-a33f-153626b38c76" class="st0" cx="228.6" cy="81.7" r="6.6"/>
		<circle id="ac293633-0933-4e21-a8aa-bc27ca4fbccc" class="st0" cx="273.7" cy="100.9" r="6.6"/>
		<circle id="a0cd768d-b738-4d4b-9ab3-78ab535c7573" class="st1" cx="308.1" cy="100.9" r="6.6"/>
		<circle id="b9eb3d2e-31e0-4fe2-be5c-79abb86bc227" class="st0" cx="291.4" cy="81.7" r="6.6"/>
		<circle id="aa04baac-fce0-420a-b86a-4a97f3079928" class="st0" cx="384.7" cy="81.7" r="6.6"/>
		<circle id="e92cf92c-058e-415c-ba96-766a57ee18d9" class="st0" cx="352.6" cy="81.7" r="6.6"/>
		<path class="st2" d="M182.3,82.1c-0.2,0-0.4-0.2-0.4-0.4V62.9c0-1.1,0.9-1.9,1.9-1.9h18.5c0.2,0,0.4,0.2,0.4,0.4s-0.2,0.4-0.4,0.4
			h-18.5c-0.6,0-1.1,0.5-1.1,1.1v18.8C182.7,81.9,182.5,82.1,182.3,82.1z"/>
		<circle id="b0a7c1c1-8f27-441f-a84a-e44462cc473e" class="st3" cx="203.2" cy="61.3" r="6.6"/>
		<path class="st2" d="M328.9,81.7h-0.8V62.9c0-1.1,0.9-1.9,1.9-1.9h18.5v0.8h-18.5c-0.6,0-1.1,0.5-1.1,1.1V81.7z"/>
		<circle id="b3140cf1-cdb8-48ff-81af-ce41ed4f5739" class="st3" cx="349.5" cy="61.3" r="6.6"/>
	</g>
	<g>
		<path class="st0" d="M58.1,193.2c-0.1,0.3-0.3,0.7-0.5,1c-0.9,1.7-2.3,3.2-3.9,4.4c-5.8,4.1-13.7,2.7-17.8-3.1
			c-1.5-2.1-2.3-4.7-2.3-7.3v-2.1h1.7C42.1,190.5,50,193,58.1,193.2z"/>
		<path class="st0" d="M83,186.7v1.5c0,7-5.7,12.7-12.7,12.7c-4.7,0-9-2.5-11.2-6.6c-0.2-0.3-0.4-0.7-0.5-1c0.4,0,0.7,0,1.1,0
			C67.9,193.3,76,191,83,186.7z"/>
		<path class="st0" d="M100.1,32.9c-0.4-0.1-0.8-0.1-1.2-0.1c4.4,10.2,4.7,21.6,0.9,32c0.4,0,0.8-0.1,1.2-0.2
			c8.7-1.7,14.4-10.1,12.7-18.8C112.4,39,107,33.8,100.1,32.9L100.1,32.9z"/>
		<path class="st0" d="M20.3,32.8c-0.4,0-0.8,0.1-1.2,0.1C10.4,34.1,4.2,42.2,5.4,51c0.9,6.8,6.1,12.3,12.9,13.6
			c0.4,0.1,0.8,0.1,1.2,0.2C15.6,54.4,15.9,42.9,20.3,32.8L20.3,32.8z"/>
		<path class="st0" d="M100.1,32.9C90.8,10.5,65.1,0,42.7,9.4C20.3,18.7,9.8,44.4,19.2,66.8c9.4,22.4,35.1,32.9,57.4,23.5
			c16.3-6.8,26.9-22.8,26.9-40.5C103.5,44,102.4,38.3,100.1,32.9z M99.8,64.8C91.6,87,66.9,98.3,44.7,90
			c-22.2-8.3-33.5-32.9-25.2-55.1C27.7,12.7,52.4,1.4,74.6,9.7c16.8,6.2,27.9,22.3,27.9,40.2C102.5,54.9,101.6,60,99.8,64.8z"/>
		<path class="st0" d="M82.1,39.9H37.2c-4.9,0-8.9,4-8.9,8.9c0,4.9,4,8.9,8.9,8.9h44.9c4.9,0,8.9-4,8.9-8.9
			C91,43.9,87,39.9,82.1,39.9z"/>
		<path class="st0" d="M99.8,126.1c-0.2-0.3-0.3-0.6-0.5-0.9c0,0,0,0,0,0c-12.8-21.9-40.9-29.3-62.8-16.5
			C14.6,121.5,7.2,149.6,20,171.5c7.9,13.5,22,22,37.6,22.7c0.5,0,1,0,1.5,0c0.2,0,0.4,0,0.6,0c8.2,0,16.3-2.2,23.3-6.4
			c7.7-4.5,13.9-11.2,17.8-19.2c0,0,0,0,0,0c0.2-0.3,0.3-0.6,0.4-0.9C107.5,154.5,107,139,99.8,126.1L99.8,126.1z M100.3,167.5
			c-0.1,0.3-0.3,0.6-0.5,0.9C96,176,90.2,182.3,83,186.7c-7,4.3-15.1,6.6-23.3,6.5c-0.4,0-0.7,0-1.1,0c-0.2,0-0.3,0-0.5,0
			c-24.8-0.9-44.2-21.7-43.3-46.5c0.9-24.8,21.7-44.2,46.5-43.3c15.3,0.5,29.3,8.8,37.1,22c0,0,0,0,0,0c0.2,0.3,0.4,0.6,0.5,0.9
			C105.9,139.1,106.5,154.4,100.3,167.5L100.3,167.5z"/>
		<path class="st0" d="M95,127.5c-0.9-0.6-2-1-3.1-1H71.8c-2.9,0-5.3,2.4-5.3,5.3c0,2.9,2.4,5.3,5.3,5.3c0,0,0,0,0,0h20.1
			c0.4,0,0.7,0,1.1-0.1c0.3-0.1,0.7-0.2,1-0.3c2.7-1.2,3.9-4.3,2.8-6.9C96.4,128.8,95.7,128,95,127.5L95,127.5z"/>
		<circle class="st4" cx="73.2" cy="131.8" r="2.7"/>
		<circle class="st4" cx="81.9" cy="131.8" r="2.7"/>
		<circle class="st5" cx="90.6" cy="131.8" r="2.7"/>
	</g>
</g>
</svg>
